
<svg xmlns="http://www.w3.org/2000/svg" fill="none" viewBox="0 0 318 128">
    <path fill="currentColor" fill-rule="evenodd" d="M59.921 0 0 103.787h119.843L59.921 0Zm0 13.386L11.592 97.094h96.658L59.921 13.386Z" clip-rule="evenodd"/>
    <path fill="currentColor" d="M141.106 65.778a9.92 9.92 0 0 1-5.255-1.464 11.417 11.417 0 0 1-3.843-3.896c-.959-1.638-1.438-3.433-1.438-5.385l.052-16.968c0-1.987.48-3.773 1.438-5.36a10.756 10.756 0 0 1 3.817-3.842 9.875 9.875 0 0 1 5.229-1.464c1.952 0 3.704.479 5.255 1.438a10.832 10.832 0 0 1 3.765 3.869c.958 1.603 1.437 3.39 1.437 5.36l.053 16.967c0 1.952-.471 3.738-1.412 5.36a11.125 11.125 0 0 1-3.817 3.92c-1.586.977-3.346 1.465-5.281 1.465Zm0-6.458c1.081 0 2.022-.435 2.824-1.307.801-.889 1.202-1.882 1.202-2.98l-.052-16.968c0-1.185-.375-2.187-1.124-3.006-.75-.82-1.7-1.229-2.85-1.229-1.098 0-2.039.4-2.824 1.203-.784.801-1.176 1.812-1.176 3.032v16.968c0 1.167.392 2.178 1.176 3.032.785.837 1.726 1.255 2.824 1.255ZM165.524 65.778a9.87 9.87 0 0 1-5.228-1.464 11.048 11.048 0 0 1-3.844-3.922c-.941-1.656-1.411-3.46-1.411-5.412l.104-26.77c0-.14.07-.21.209-.21h6.013c.14 0 .21.07.21.21v26.77c0 1.203.383 2.231 1.15 3.085.767.837 1.699 1.255 2.797 1.255 1.151 0 2.109-.418 2.876-1.255.767-.854 1.15-1.882 1.15-3.085V28.21c0-.14.07-.21.21-.21h6.013c.139 0 .209.07.209.21l.104 26.77c0 1.97-.47 3.783-1.411 5.438a11.126 11.126 0 0 1-3.817 3.922c-1.586.959-3.364 1.438-5.334 1.438ZM191.72 65.255h-6.039c-.157 0-.235-.087-.235-.261V34.457h-6.954c-.175 0-.262-.088-.262-.262l.052-5.987c0-.14.07-.209.21-.209h20.339c.192 0 .288.07.288.21v5.986c0 .174-.07.262-.209.262h-7.033l.052 30.535c0 .175-.069.262-.209.262ZM211.59 65.203l-9.595.052c-.174 0-.262-.087-.262-.261l.105-36.785c0-.14.07-.209.209-.209l10.013-.052c1.987-.053 3.782.4 5.386 1.36a10.761 10.761 0 0 1 3.869 3.895c.976 1.62 1.464 3.416 1.464 5.385v15.373c0 2.056-.497 3.939-1.49 5.647a11.642 11.642 0 0 1-4.026 4.052c-1.673.994-3.564 1.508-5.673 1.543Zm.47-30.85-3.738.052-.053 24.262h3.321c1.324 0 2.44-.462 3.346-1.386.906-.924 1.36-2.03 1.36-3.32V38.536c0-1.133-.419-2.118-1.255-2.954-.837-.854-1.83-1.264-2.981-1.23ZM236.897 65.778c-1.9 0-3.652-.488-5.255-1.464a11.417 11.417 0 0 1-3.843-3.896c-.959-1.638-1.438-3.433-1.438-5.385l.052-16.968c0-1.987.479-3.773 1.438-5.36a10.756 10.756 0 0 1 3.817-3.842 9.873 9.873 0 0 1 5.229-1.464c1.952 0 3.704.479 5.255 1.438a10.83 10.83 0 0 1 3.764 3.869c.959 1.603 1.438 3.39 1.438 5.36l.053 16.967c0 1.952-.471 3.738-1.412 5.36a11.125 11.125 0 0 1-3.817 3.92c-1.586.977-3.347 1.465-5.281 1.465Zm0-6.458c1.08 0 2.022-.435 2.823-1.307.802-.889 1.203-1.882 1.203-2.98l-.052-16.968c0-1.185-.375-2.187-1.125-3.006-.749-.82-1.699-1.229-2.849-1.229-1.098 0-2.039.4-2.824 1.203-.784.801-1.176 1.812-1.176 3.032v16.968c0 1.167.392 2.178 1.176 3.032.785.837 1.726 1.255 2.824 1.255ZM261.367 65.778a9.916 9.916 0 0 1-5.254-1.464 11.41 11.41 0 0 1-3.844-3.896c-.958-1.638-1.438-3.433-1.438-5.385l.053-16.968c0-1.987.479-3.773 1.438-5.36a10.748 10.748 0 0 1 3.817-3.842 9.87 9.87 0 0 1 5.228-1.464c1.952 0 3.704.479 5.255 1.438a10.824 10.824 0 0 1 3.765 3.869c.959 1.603 1.438 3.39 1.438 5.36l.052 16.967c0 1.952-.47 3.738-1.412 5.36a11.108 11.108 0 0 1-3.817 3.92c-1.586.977-3.346 1.465-5.281 1.465Zm0-6.458c1.081 0 2.022-.435 2.824-1.307.802-.889 1.203-1.882 1.203-2.98l-.053-16.968c0-1.185-.374-2.187-1.124-3.006-.749-.82-1.699-1.229-2.85-1.229-1.098 0-2.039.4-2.823 1.203-.784.801-1.177 1.812-1.177 3.032v16.968c0 1.167.393 2.178 1.177 3.032.784.837 1.725 1.255 2.823 1.255ZM282.204 65.255h-6.065c-.14 0-.21-.087-.21-.261l.105-36.785c0-.14.07-.209.209-.209h10.824c1.934 0 3.712.47 5.333 1.412a10.75 10.75 0 0 1 3.869 3.79c.976 1.587 1.464 3.382 1.464 5.386 0 1.307-.2 2.493-.601 3.556-.401 1.063-.871 1.96-1.412 2.693-.523.732-1.002 1.272-1.438 1.62 1.935 2.144 2.902 4.663 2.902 7.556l.053 10.98c0 .175-.087.262-.262.262h-6.065c-.14 0-.209-.052-.209-.157V54.013c0-1.29-.453-2.405-1.36-3.346-.906-.942-2.022-1.412-3.346-1.412h-3.53l-.052 15.738c0 .175-.07.262-.209.262Zm4.863-30.85h-4.602v8.419h4.602c1.098 0 2.074-.41 2.928-1.23.871-.818 1.307-1.82 1.307-3.006 0-1.133-.418-2.109-1.255-2.928-.836-.836-1.83-1.255-2.98-1.255ZM129.394 106.824l6.64-36.785c.035-.14.122-.209.262-.209h7.764c.14 0 .227.07.262.21l6.379 36.784c.017.174-.053.261-.209.261h-5.935c-.174 0-.27-.087-.288-.261l-.575-3.922H136.4l-.575 3.922c-.018.174-.105.261-.262.261h-5.96c-.14 0-.209-.087-.209-.261Zm10.483-24.68-2.405 15.032h5.15l-2.196-15.032-.313-1.987-.236 1.987ZM171.563 107.085h-17.307c-.139 0-.209-.087-.209-.261l.052-36.733c0-.174.088-.26.262-.26h5.961c.174 0 .261.086.261.26l-.052 30.406h11.032c.175 0 .262.087.262.261v6.066c0 .174-.087.261-.262.261ZM192.845 107.085h-17.308c-.139 0-.209-.087-.209-.261l.052-36.733c0-.174.088-.26.262-.26h5.961c.174 0 .261.086.261.26l-.052 30.406h11.033c.174 0 .261.087.261.261v6.066c0 .174-.087.261-.261.261ZM202.884 107.085h-6.066c-.139 0-.209-.087-.209-.261l.105-36.785c0-.14.07-.209.209-.209h10.823c1.935 0 3.713.47 5.334 1.412a10.75 10.75 0 0 1 3.869 3.79c.976 1.587 1.464 3.382 1.464 5.386 0 1.307-.2 2.493-.601 3.556-.401 1.063-.872 1.96-1.412 2.693-.523.732-1.002 1.272-1.438 1.62 1.935 2.144 2.902 4.663 2.902 7.556l.052 10.981c0 .174-.087.261-.261.261h-6.065c-.14 0-.21-.052-.21-.157V95.843c0-1.29-.453-2.405-1.359-3.346-.906-.942-2.022-1.412-3.346-1.412h-3.53l-.052 15.739c0 .174-.07.261-.209.261Zm4.862-30.85h-4.601v8.419h4.601c1.099 0 2.075-.41 2.929-1.23.871-.818 1.307-1.82 1.307-3.006 0-1.133-.419-2.109-1.255-2.928-.837-.836-1.83-1.255-2.981-1.255ZM232.348 107.608c-1.9 0-3.652-.488-5.255-1.464a11.417 11.417 0 0 1-3.843-3.896c-.959-1.638-1.438-3.433-1.438-5.385l.052-16.968c0-1.986.479-3.773 1.438-5.36a10.756 10.756 0 0 1 3.817-3.842 9.873 9.873 0 0 1 5.229-1.464c1.952 0 3.703.479 5.255 1.438a10.83 10.83 0 0 1 3.764 3.869c.959 1.603 1.438 3.39 1.438 5.36l.053 16.967c0 1.952-.471 3.738-1.412 5.359a11.121 11.121 0 0 1-3.817 3.922c-1.586.976-3.347 1.464-5.281 1.464Zm0-6.458c1.08 0 2.022-.435 2.823-1.307.802-.889 1.203-1.882 1.203-2.98l-.052-16.968c0-1.185-.375-2.187-1.125-3.006-.749-.82-1.699-1.229-2.849-1.229-1.098 0-2.039.401-2.824 1.203-.784.802-1.176 1.812-1.176 3.032v16.968c0 1.168.392 2.178 1.176 3.032.785.837 1.726 1.255 2.824 1.255ZM256.766 107.608a9.875 9.875 0 0 1-5.229-1.464 11.05 11.05 0 0 1-3.843-3.922c-.941-1.656-1.412-3.46-1.412-5.412l.105-26.77c0-.14.07-.21.209-.21h6.013c.14 0 .209.07.209.21v26.77c0 1.203.384 2.231 1.151 3.085.767.837 1.699 1.255 2.797 1.255 1.15 0 2.109-.418 2.876-1.255.767-.854 1.15-1.882 1.15-3.085V70.04c0-.14.07-.21.209-.21h6.013c.14 0 .21.07.21.21l.104 26.77c0 1.97-.47 3.783-1.412 5.438a11.113 11.113 0 0 1-3.817 3.922c-1.586.959-3.363 1.438-5.333 1.438ZM277.367 107.085h-5.359c-.279 0-.418-.122-.418-.366l-.053-36.47c0-.28.14-.419.419-.419h4.836l9.046 21.098-.261-20.68c0-.279.156-.418.47-.418h5.307c.209 0 .314.14.314.418l.052 36.523c0 .209-.087.314-.261.314h-4.706l-9.281-19.712.392 19.294c0 .279-.165.418-.497.418ZM306.23 107.033l-9.595.052c-.174 0-.261-.087-.261-.261l.105-36.785c0-.14.069-.209.209-.209l10.013-.052c1.987-.053 3.782.4 5.385 1.36a10.771 10.771 0 0 1 3.87 3.895c.976 1.62 1.464 3.416 1.464 5.385v15.373c0 2.056-.497 3.939-1.491 5.647a11.623 11.623 0 0 1-4.026 4.052c-1.673.994-3.564 1.508-5.673 1.543Zm.471-30.85-3.739.052-.052 24.262h3.32c1.325 0 2.44-.462 3.347-1.386.906-.924 1.359-2.03 1.359-3.32V80.366c0-1.133-.418-2.118-1.255-2.954-.836-.854-1.83-1.264-2.98-1.229Z"/>
    <path fill="currentColor" fill-rule="evenodd" d="M59.224 121.307c28.37 0 51.451-23.177 51.451-51.87 0-28.691-23.08-51.868-51.451-51.868-28.37 0-51.451 23.177-51.451 51.869s23.08 51.869 51.45 51.869Zm0 6.693c32.112 0 58.144-26.219 58.144-58.562 0-32.343-26.032-58.562-58.144-58.562-32.112 0-58.144 26.219-58.144 58.562C1.08 101.78 27.112 128 59.224 128Z" clip-rule="evenodd"/>
    <path fill="currentColor" fill-rule="evenodd" d="M29.028 96.21h31.775c-.517-3.868-.649-8.037.366-12.18 1.412-5.773 4.957-11.157 11.872-15.651 2.088-1.357 3.822-2.738 5.032-4.006 1.172-1.23 1.543-2.032 1.627-2.366a2.29 2.29 0 0 0-.39-.272c-.957-.554-2.986-1.178-6.731-1.45-9.355-.679-19.3 5.68-28.016 14.74-6.706 6.969-12.194 15.03-15.535 21.184ZM39.74 70.383c8.987-9.34 20.809-17.682 33.323-16.774 4.071.296 7.319 1.013 9.599 2.332 1.182.684 2.235 1.605 2.933 2.837.718 1.269.928 2.639.766 3.955-.3 2.438-1.85 4.586-3.445 6.258-1.683 1.765-3.87 3.467-6.228 4.999-5.61 3.646-8.044 7.65-9.018 11.63-1.014 4.14-.537 8.602.364 13.305l.763 3.976h-50.19l1.982-4.657c2.977-6.995 10.03-18.383 19.15-27.86Z" clip-rule="evenodd"/>
</svg>