<svg xmlns="http://www.w3.org/2000/svg" viewBox="0 0 120 128">
    <path fill="currentColor" fill-rule="evenodd" d="M59.921 0 0 103.787h119.843L59.921 0Zm0 13.386L11.592 97.094h96.658L59.921 13.386Z" clip-rule="evenodd"/>
    <path fill="currentColor" fill-rule="evenodd" d="M59.224 121.307c28.37 0 51.451-23.177 51.451-51.87 0-28.691-23.08-51.868-51.451-51.868-28.37 0-51.451 23.177-51.451 51.869s23.08 51.869 51.45 51.869Zm0 6.693c32.112 0 58.144-26.219 58.144-58.562 0-32.343-26.032-58.562-58.144-58.562-32.112 0-58.144 26.219-58.144 58.562C1.08 101.78 27.112 128 59.224 128Z" clip-rule="evenodd"/>
    <path fill="currentColor" fill-rule="evenodd" d="M29.028 96.21h31.775c-.517-3.868-.649-8.037.366-12.18 1.412-5.773 4.957-11.157 11.872-15.651 2.088-1.357 3.822-2.738 5.032-4.006 1.172-1.23 1.543-2.032 1.627-2.366a2.29 2.29 0 0 0-.39-.272c-.957-.554-2.986-1.178-6.731-1.45-9.355-.679-19.3 5.68-28.016 14.74-6.706 6.969-12.194 15.03-15.535 21.184ZM39.74 70.383c8.987-9.34 20.809-17.682 33.323-16.774 4.071.296 7.319 1.013 9.599 2.332 1.182.684 2.235 1.605 2.933 2.837.718 1.269.928 2.639.766 3.955-.3 2.438-1.85 4.586-3.445 6.258-1.683 1.765-3.87 3.467-6.228 4.999-5.61 3.646-8.044 7.65-9.018 11.63-1.014 4.14-.537 8.602.364 13.305l.763 3.976h-50.19l1.982-4.657c2.977-6.995 10.03-18.383 19.15-27.86Z" clip-rule="evenodd"/>
</svg>